<?xml version="1.0" standalone="no"?>
<!DOCTYPE svg PUBLIC "-//W3C//DTD SVG 20010904//EN"
 "http://www.w3.org/TR/2001/REC-SVG-20010904/DTD/svg10.dtd">
<svg version="1.0" xmlns="http://www.w3.org/2000/svg"
 width="300.000000pt" height="200.000000pt" viewBox="0 0 300.000000 200.000000"
 preserveAspectRatio="xMidYMid meet">
<metadata>
Created by potrace 1.10, written by Peter Selinger 2001-2011
</metadata>
<g transform="translate(0.000000,200.000000) scale(0.100000,-0.100000)"
fill="#000000" stroke="none">
<path d="M1283 1787 c2 -7 18 -16 35 -22 18 -5 32 -15 32 -22 0 -18 29 -16 36
2 4 8 14 15 24 15 11 0 22 5 26 11 4 8 -5 9 -33 5 -25 -5 -55 -2 -82 7 -29 11
-41 11 -38 4z"/>
<path d="M1222 1575 c-23 -13 -63 -25 -90 -27 -44 -3 -45 -4 -17 -12 17 -4 40
-13 53 -19 17 -8 25 -8 34 1 9 9 9 12 -2 12 -8 1 2 10 22 20 35 19 54 37 46
45 -2 2 -23 -7 -46 -20z"/>
<path d="M2283 1564 c24 -22 32 -24 55 -16 l27 10 -26 1 c-14 1 -34 8 -45 16
-32 24 -41 17 -11 -11z"/>
<path d="M1570 1525 c0 -4 13 -20 29 -36 29 -29 51 -37 51 -20 0 5 11 12 25
15 14 4 25 10 25 15 0 6 -15 5 -35 0 -30 -9 -40 -7 -65 11 -17 12 -30 18 -30
15z"/>
<path d="M960 1409 c-13 -6 -35 -7 -47 -4 -30 7 -29 1 2 -19 18 -12 29 -14 38
-6 6 6 21 17 32 25 23 16 11 18 -25 4z"/>
<path d="M2180 1359 c-30 -22 -68 -53 -83 -70 -16 -16 -40 -37 -53 -46 -23
-15 -26 -15 -47 4 -38 35 -106 73 -129 73 -13 0 -43 14 -68 30 -52 34 -75 38
-89 12 -6 -11 -24 -34 -41 -52 -17 -18 -37 -44 -46 -59 -19 -32 -156 -121
-186 -121 -11 0 -43 12 -70 27 l-51 28 -33 -39 -34 -39 -50 44 c-27 24 -77 70
-110 101 l-61 57 -58 -57 c-31 -31 -85 -76 -119 -100 l-61 -42 -25 32 c-14 18
-45 57 -68 87 -24 29 -57 73 -74 98 -17 24 -34 46 -38 50 -3 3 -29 -13 -57
-37 l-50 -42 -39 14 -38 15 -46 -39 c-26 -22 -58 -63 -72 -90 -14 -27 -56 -83
-94 -124 -39 -41 -75 -84 -81 -95 -37 -70 153 107 211 196 51 78 110 123 97
74 -4 -15 -2 -19 9 -15 21 8 17 -15 -8 -41 -25 -26 -13 -31 20 -7 12 8 22 23
22 32 0 9 26 39 57 67 55 48 60 47 38 -7 -4 -11 -3 -18 4 -18 6 0 11 5 11 10
0 6 5 10 10 10 16 0 12 -56 -5 -70 -9 -7 -26 -27 -38 -44 l-22 -31 30 23 c26
21 30 22 33 7 2 -9 -5 -27 -15 -38 -16 -19 -43 -69 -43 -82 0 -2 23 19 52 47
l52 50 17 -21 c10 -11 23 -19 31 -16 7 3 34 -16 62 -44 l48 -49 -65 -65 c-49
-50 -96 -83 -192 -137 -122 -67 -153 -81 -141 -61 3 5 -4 11 -17 15 -21 5 -21
6 13 36 27 24 30 30 13 25 -16 -4 -26 2 -43 25 l-21 30 23 9 c17 7 19 10 6 10
-10 1 -18 4 -19 9 -7 86 -23 111 -31 52 -5 -32 -19 -56 -38 -63 -11 -4 -9 -6
6 -6 36 -2 35 -14 -3 -32 -31 -14 -34 -18 -15 -18 24 -1 30 -16 10 -24 -10 -4
-10 -6 0 -6 6 -1 12 -5 12 -10 0 -5 -10 -7 -22 -3 -14 3 -19 2 -14 -6 5 -8 -1
-12 -15 -12 -22 0 -22 0 -4 -14 11 -8 24 -12 29 -9 5 4 6 1 2 -5 -4 -7 -1 -12
9 -12 28 0 7 -17 -30 -24 l-36 -7 23 -29 c25 -32 39 -36 69 -19 14 7 17 14 11
22 -14 17 -2 104 16 119 13 11 15 10 9 -5 -4 -9 1 -33 10 -51 15 -33 15 -35
-8 -64 -27 -33 -89 -72 -116 -73 -11 0 -13 -3 -5 -6 6 -2 10 -9 6 -14 -3 -5 1
-9 8 -9 9 0 9 -3 -2 -10 -12 -8 -10 -10 8 -10 13 0 32 5 43 10 26 14 24 2 -3
-22 -14 -12 -33 -18 -49 -16 -16 3 -26 -1 -26 -9 0 -8 14 -13 39 -13 24 0 37
-4 33 -10 -3 -6 -36 -10 -73 -11 -70 0 -138 -17 -77 -18 17 -1 41 -8 54 -17
15 -11 34 -14 57 -11 19 3 34 1 34 -4 0 -17 -64 -49 -100 -50 l-35 0 40 -15
c22 -8 51 -12 64 -9 22 6 23 4 11 -10 -9 -11 -22 -14 -39 -10 -25 6 -26 6 -6
-10 20 -16 19 -16 -7 -11 -14 3 -34 9 -43 12 -15 6 -16 4 -6 -14 9 -18 8 -21
-12 -24 -44 -8 65 -30 120 -25 l53 5 0 -33 c0 -32 -1 -32 -53 -38 -28 -3 -72
-13 -97 -21 l-45 -15 60 4 60 5 -40 -14 c-54 -19 -44 -19 40 -1 48 10 104 13
175 10 82 -3 95 -2 60 5 -114 24 -130 31 -130 59 0 26 1 26 78 27 43 1 113 10
155 19 69 17 86 17 190 5 69 -8 167 -11 243 -8 71 3 118 2 104 -1 -14 -4 29
-7 95 -6 66 0 134 -4 150 -8 18 -5 26 -5 20 1 -19 17 -131 42 -192 42 -33 0
-83 -4 -110 -9 -33 -7 -98 -6 -189 1 -161 13 -257 14 -334 3 -52 -7 -54 -6
-35 9 12 10 14 14 5 12 -44 -12 -74 -16 -61 -7 11 7 10 12 -8 22 -25 17 -28
29 -3 23 9 -3 26 2 37 10 20 15 20 15 0 16 -11 0 -31 8 -45 16 l-25 15 26 -5
c14 -3 29 -3 32 0 8 8 -16 33 -25 27 -4 -2 -6 2 -3 9 4 9 -6 14 -30 16 -35 2
-35 1 -21 -20 8 -13 16 -50 18 -83 l3 -59 -45 0 c-60 1 -112 13 -104 26 6 9
11 41 17 113 2 17 8 49 15 72 7 23 10 53 7 66 -4 16 0 29 14 41 23 21 44 12
36 -15 -4 -11 1 -44 11 -74 16 -53 18 -55 51 -55 19 0 67 -11 106 -24 40 -13
86 -27 102 -30 31 -7 28 -1 -22 31 -16 11 -15 12 13 12 16 1 58 11 93 22 l62
21 56 -21 c30 -11 66 -21 79 -21 39 0 21 -15 -48 -40 -35 -12 -67 -27 -73 -33
-7 -7 -5 -8 5 -5 8 3 50 13 92 23 l77 18 61 -27 c60 -27 205 -57 265 -55 25 1
22 3 -15 11 -25 5 -61 13 -80 18 l-35 8 37 1 c20 1 49 6 63 13 l26 12 -33 14
c-31 13 -32 14 -12 22 14 5 36 3 60 -5 22 -8 50 -14 64 -14 23 0 23 1 -7 14
-18 8 -33 16 -33 19 0 3 38 2 85 -1 47 -3 85 -3 85 0 0 3 -33 11 -72 17 -80
14 -108 24 -108 43 0 7 -7 21 -15 31 -14 19 -15 18 -23 -5 -9 -23 -10 -23 -17
10 -5 23 -10 29 -15 21 -6 -11 -12 -10 -25 4 -17 16 -17 18 4 32 20 15 29 35
14 33 -5 -1 -17 -1 -27 0 -18 1 -18 2 3 25 l22 24 -25 6 c-29 7 -34 21 -11 30
8 3 15 10 15 16 0 6 -4 9 -9 6 -11 -7 -22 18 -27 58 -6 41 -10 42 -29 7 -12
-24 -12 -31 -3 -32 7 0 2 -5 -11 -10 -23 -9 -24 -10 -5 -24 10 -8 15 -15 9
-15 -5 0 -17 -5 -25 -10 -13 -8 -12 -11 5 -24 20 -16 20 -16 -2 -22 -19 -5
-20 -9 -10 -25 6 -10 18 -19 25 -19 7 0 11 -4 7 -10 -3 -5 -12 -7 -20 -3 -13
5 -20 -7 -16 -29 0 -5 -4 -8 -9 -8 -6 0 -10 15 -10 34 0 19 -4 38 -10 41 -5 3
-10 3 -11 -2 -5 -69 -19 -109 -19 -57 0 16 -4 35 -9 42 -8 13 -21 -51 -21
-107 l0 -25 30 32 c16 18 35 30 41 27 6 -4 28 7 50 24 37 30 39 31 39 10 0
-12 20 -41 45 -67 l46 -46 -25 -13 c-14 -7 -28 -22 -31 -34 -4 -11 -16 -24
-28 -29 -17 -6 -28 -2 -49 21 -31 34 -71 46 -104 31 -25 -12 -44 -8 -84 17
-14 9 -57 27 -96 40 l-70 24 -73 -22 c-40 -12 -76 -20 -78 -17 -11 10 76 88
92 83 8 -4 31 1 50 9 20 8 41 12 46 8 13 -8 1 86 -12 100 -6 6 -9 6 -10 0 -3
-37 -11 -89 -15 -93 -2 -2 -4 9 -5 25 0 16 -4 38 -8 49 -7 15 -10 6 -16 -38
-4 -32 -10 -55 -14 -52 -6 6 -7 16 -10 84 -2 46 -18 6 -20 -49 -1 -20 -3 -22
-11 -10 -6 10 -10 11 -10 3 0 -7 -4 -13 -10 -13 -5 0 -9 3 -9 8 1 4 1 14 0 22
-3 26 -22 -17 -23 -50 -1 -35 -15 -40 -21 -7 -3 15 -5 11 -6 -13 -3 -63 -18
-66 -25 -6 -9 65 -25 84 -27 29 -1 -21 -1 -41 0 -45 0 -5 -3 -8 -9 -8 -5 0
-10 12 -10 28 l-1 27 -14 -25 -14 -25 -1 27 c0 42 -18 43 -23 1 -3 -34 -5 -35
-12 -15 -6 18 -10 20 -16 10 -5 -7 -9 -23 -9 -35 0 -17 -6 -23 -23 -23 -23 0
-47 17 -47 33 0 5 15 6 33 3 29 -5 28 -4 -13 16 -45 23 -45 23 -15 26 16 2 40
15 52 28 29 31 29 37 2 29 -15 -5 -19 -4 -14 5 6 9 3 9 -15 0 -23 -12 -50 -7
-50 10 0 5 8 10 18 10 9 0 29 15 44 34 22 27 38 35 90 46 34 6 74 18 88 25 28
15 130 112 130 124 0 7 44 31 56 31 2 0 -3 -11 -12 -25 l-16 -25 42 0 c29 0
51 -8 75 -25 35 -27 114 -48 101 -27 -4 7 -16 12 -26 12 -11 0 -25 10 -31 23
-6 12 -22 33 -35 47 -18 20 -21 31 -16 58 l7 34 27 -21 c36 -29 40 -26 18 11
-18 32 -19 34 0 58 17 23 20 23 45 10 32 -17 64 -60 81 -109 11 -31 16 -36 46
-37 19 -1 43 -6 55 -13 43 -23 47 -10 5 18 -24 15 -58 52 -77 82 -23 37 -47
61 -72 73 l-37 18 24 18 c23 18 25 17 54 -5 58 -42 61 -36 6 14 -54 49 -54 50
-36 70 18 20 20 20 39 4 20 -18 20 -18 3 15 -10 19 -16 35 -14 37 2 2 35 -30
74 -71 39 -41 66 -74 60 -74 -6 -1 7 -11 29 -23 37 -20 38 -22 16 -25 -22 -3
-17 -8 34 -35 32 -18 65 -43 74 -57 l16 -24 -38 23 -37 23 19 -34 c10 -18 24
-49 30 -70 8 -23 20 -38 34 -42 12 -3 57 -17 100 -30 42 -14 77 -21 77 -18 0
4 -29 23 -65 42 -54 29 -68 42 -84 80 -23 52 -14 61 31 29 25 -17 20 -9 -22
36 -33 36 -50 60 -42 63 10 3 10 7 1 18 -19 23 -1 29 23 8 17 -15 16 -12 -5
17 -41 54 -32 66 16 23 23 -22 61 -48 85 -58 28 -13 42 -25 42 -38 0 -12 14
-25 38 -35 20 -10 57 -34 82 -54 25 -20 58 -39 75 -43 16 -4 27 -5 24 -2 -8 8
-90 65 -127 88 -25 16 -30 23 -21 34 6 7 8 18 4 24 -11 17 2 11 73 -35 48 -31
86 -66 123 -115 30 -39 77 -86 107 -105 63 -43 68 -31 9 22 -24 21 -62 65 -85
99 -23 33 -73 85 -110 116 -37 31 -78 68 -91 82 l-24 25 24 20 c13 11 31 20
40 21 9 0 22 7 29 15 18 21 22 20 74 -26 45 -39 46 -40 34 -13 -6 16 -21 39
-32 51 -26 30 -14 40 21 18 l28 -18 -24 27 c-14 14 -31 26 -39 26 -11 0 -12 3
-3 14 6 7 8 22 4 31 -5 14 -3 17 10 12 19 -7 22 4 6 20 -6 6 -9 17 -7 24 2 7
32 -16 71 -54 37 -37 71 -67 76 -67 5 0 24 -12 41 -26 17 -15 33 -24 36 -22 5
6 -67 73 -86 80 -9 3 -10 9 -4 21 8 14 26 0 109 -92 55 -59 125 -142 155 -184
30 -42 58 -77 62 -77 3 0 -18 42 -48 93 -82 141 -80 135 -63 153 23 22 93 -2
97 -34 2 -12 9 -22 16 -22 16 0 49 -36 69 -75 20 -38 21 -29 2 25 -8 23 -33
64 -55 90 -43 51 -51 73 -22 63 15 -6 15 -4 -2 15 -11 12 -14 22 -8 22 7 0 12
6 12 13 0 7 6 22 14 32 13 18 16 18 33 4 37 -32 43 -30 22 11 -12 22 -19 43
-17 45 3 3 27 -22 54 -56 27 -33 56 -65 66 -70 10 -5 15 -16 12 -24 -4 -11 6
-20 32 -32 38 -16 38 -17 14 -23 -23 -5 -22 -7 20 -24 44 -17 100 -61 100 -79
0 -4 -14 1 -31 13 -35 25 -49 22 -20 -4 11 -10 18 -23 15 -30 -3 -7 12 -20 36
-31 22 -10 45 -25 52 -32 17 -21 128 -75 128 -63 0 5 -4 10 -9 10 -15 0 -138
119 -144 140 -7 25 3 25 36 0 49 -39 41 -19 -12 31 -40 36 -51 53 -42 59 9 5
10 10 2 14 -6 4 -11 14 -11 23 0 13 5 11 26 -8 24 -21 26 -22 16 -3 -6 11 -18
26 -26 34 -9 7 -16 19 -16 27 0 10 18 0 49 -26 27 -23 65 -48 85 -56 23 -10
36 -22 36 -33 0 -17 38 -62 53 -62 4 0 29 -14 56 -31 52 -32 111 -53 111 -40
0 4 -23 18 -52 32 -83 38 -108 64 -108 110 l0 39 65 -51 c36 -28 65 -47 65
-42 0 9 -108 116 -143 143 -17 12 -21 11 -37 -9 -23 -31 -47 -25 -128 34 l-63
46 -18 -23 c-10 -13 -28 -34 -38 -47 l-20 -25 -107 107 c-58 59 -110 107 -114
107 -4 -1 -32 -19 -62 -41z m-12 -46 c-8 -10 -18 -30 -22 -45 -4 -19 -13 -28
-25 -28 -11 0 -28 -3 -38 -6 -10 -3 -6 2 10 11 15 8 27 19 27 24 0 14 41 61
52 61 6 0 4 -8 -4 -17z m-1510 -94 c-7 -5 -3 -18 11 -38 12 -17 19 -31 14 -30
-17 1 -52 57 -59 94 l-7 40 26 -30 c15 -19 21 -32 15 -36z m1848 -39 c1 -32
-13 -41 -22 -15 -4 8 -1 22 6 30 16 19 15 20 16 -15z m-1584 -60 c-22 -21 -52
-57 -67 -80 l-27 -42 -23 38 -23 38 37 17 c21 9 57 31 81 48 57 41 73 28 22
-19z m619 13 c-6 -12 -6 -24 1 -38 10 -19 10 -19 -8 -4 -10 9 -26 18 -34 21
-10 3 -6 9 15 20 17 9 31 16 33 17 2 1 -1 -7 -7 -16z m-969 -617 c33 -25 -10
-36 -57 -14 -18 8 -22 14 -13 20 19 12 51 9 70 -6z m530 -83 c-6 -2 -10 -9 -7
-13 7 -11 -67 0 -79 11 -6 5 13 9 45 8 29 0 48 -3 41 -6z"/>
<path d="M1291 1357 c19 -18 33 -23 53 -20 41 8 42 23 1 23 -20 0 -46 5 -58
11 -19 10 -19 8 4 -14z"/>
<path d="M2310 935 c0 -5 13 -30 29 -54 28 -41 29 -46 13 -58 -15 -13 -14 -14
13 -10 16 3 45 -1 64 -9 19 -8 36 -12 39 -9 3 3 0 5 -7 5 -7 0 -43 33 -82 73
-38 39 -69 68 -69 62z"/>
<path d="M2616 894 c-4 -16 -17 -39 -28 -51 l-21 -23 24 0 c20 0 17 -4 -16
-19 -30 -15 -35 -20 -19 -20 12 -1 25 -8 28 -17 9 -23 8 -24 -12 -24 -10 0
-27 -6 -37 -14 -19 -13 -18 -15 15 -29 l35 -15 -28 -11 c-16 -6 -36 -11 -44
-11 -11 0 -6 -9 16 -30 38 -33 36 -60 -4 -60 -24 0 -25 -1 -11 -16 9 -8 14
-20 11 -25 -8 -12 19 -11 48 2 19 9 23 17 21 49 -1 21 -5 43 -9 50 -4 6 -1 18
6 26 7 9 12 28 11 44 -1 15 5 33 13 40 13 10 15 9 15 -9 0 -12 5 -32 11 -43 8
-15 8 -27 -2 -45 -10 -19 -11 -28 -1 -44 7 -11 10 -29 7 -40 -4 -12 2 -36 14
-58 11 -22 17 -42 13 -46 -16 -18 85 8 104 26 23 21 38 68 35 107 -2 12 3 22
9 22 7 0 10 -7 6 -15 -3 -8 6 -45 19 -82 32 -89 33 -139 3 -147 -13 -3 -40 -3
-61 1 -46 7 -77 -16 -77 -59 0 -34 19 -44 60 -30 16 6 30 7 30 3 0 -10 -35
-21 -67 -21 -13 0 -23 5 -23 10 0 13 -46 13 -70 0 -14 -7 -27 -5 -48 7 -25 14
-30 24 -29 53 0 19 4 40 9 46 5 7 8 25 7 40 -1 16 5 46 14 68 10 21 17 40 17
42 0 9 -19 3 -32 -9 -7 -7 -24 -18 -38 -24 -24 -11 -24 -12 -3 -12 12 -1 25
-5 28 -11 3 -6 -4 -10 -17 -9 -40 2 -63 13 -66 34 -1 11 -8 39 -14 63 -12 49
-28 40 -28 -17 0 -34 -12 -37 -15 -3 -14 129 -38 138 -45 17 -2 -25 -4 -23
-11 15 -5 25 -11 54 -13 65 -3 11 -5 27 -5 35 -2 30 -22 -8 -30 -56 l-8 -49
-8 43 c-5 26 -11 39 -15 31 -5 -7 -11 1 -15 22 -7 29 -9 31 -15 14 -4 -11 -5
-25 -3 -31 2 -7 -1 -15 -8 -20 -7 -4 -10 -3 -7 2 3 5 2 18 -3 29 -7 17 -8 18
-10 3 -1 -10 -3 -22 -4 -28 -1 -5 -3 -19 -4 -30 0 -11 -6 -20 -11 -20 -6 0 -9
3 -9 8 1 4 1 25 0 47 -1 54 -18 34 -27 -34 -6 -45 -5 -53 7 -45 8 5 19 9 24 9
6 1 22 7 36 14 24 12 29 11 48 -8 11 -11 27 -18 34 -15 7 2 21 -4 31 -15 10
-11 23 -18 28 -15 10 7 68 -44 68 -59 0 -10 -55 -7 -235 15 -55 6 -124 11
-152 10 -155 -4 -273 5 -273 22 0 21 38 49 56 42 9 -4 24 0 33 7 23 20 49 28
56 17 3 -5 37 -7 76 -4 50 4 75 2 86 -8 9 -7 27 -13 40 -13 24 -1 26 7 13 60
-6 27 -8 28 -14 10 -4 -11 -11 -29 -16 -40 -8 -18 -9 -18 -10 5 -1 14 -3 32
-5 40 -2 8 -7 28 -10 45 -3 16 -8 31 -10 34 -8 7 -25 -49 -25 -80 0 -18 -4
-28 -10 -24 -5 3 -10 18 -10 33 0 32 -19 68 -21 42 -1 -8 -3 -19 -4 -25 -2 -5
-4 -23 -5 -40 -2 -27 -3 -26 -12 13 -12 54 -24 44 -27 -20 -1 -10 -6 -18 -11
-18 -6 0 -10 6 -9 13 1 6 1 28 0 47 -1 27 -4 31 -11 20 -5 -8 -10 -26 -10 -40
0 -52 -26 8 -29 70 -2 37 -20 -11 -26 -70 -7 -67 -14 -90 -16 -52 -2 34 -4 40
-11 48 -5 4 -8 -8 -9 -27 -1 -28 -3 -24 -13 23 -12 57 -25 85 -27 57 0 -8 -2
-23 -5 -34 -2 -11 -4 -37 -5 -57 -2 -38 -19 -55 -19 -19 0 43 -20 29 -26 -18
-7 -56 -7 -56 -104 -66 -120 -13 -90 -20 97 -23 147 -2 190 -6 209 -18 13 -9
52 -18 86 -20 l63 -4 -42 16 c-60 22 -53 32 15 22 159 -24 456 -50 477 -42 7
3 16 1 19 -4 7 -12 -71 -52 -105 -53 l-24 -1 25 -8 c14 -4 40 -8 58 -9 39 -1
34 -21 -6 -21 -21 0 -24 -2 -12 -10 10 -6 -12 -7 -65 -3 -124 10 -230 7 -354
-11 -62 -9 -183 -20 -268 -26 -85 -5 -158 -11 -161 -14 -3 -3 55 -6 129 -6 90
0 129 -3 119 -10 -36 -23 102 -8 225 25 94 25 149 35 200 34 73 -1 66 -5 -37
-23 -74 -13 -37 -22 53 -13 65 7 102 6 128 -2 20 -7 57 -10 84 -8 26 2 47 0
47 -4 0 -5 -12 -9 -27 -10 -25 0 -24 -2 16 -20 54 -24 51 -30 -9 -19 -54 11
-126 13 -117 3 4 -3 37 -12 74 -19 81 -16 306 -19 283 -4 -8 5 -35 10 -60 11
-63 2 -103 12 -108 27 -2 8 9 12 39 12 23 0 70 4 103 10 34 5 84 13 111 17
l50 7 -60 6 c-57 5 -60 6 -63 33 -3 23 0 28 15 27 42 -5 78 0 65 9 -10 6 -3
10 22 15 20 4 36 11 36 15 0 5 -10 6 -23 4 -14 -3 -29 3 -41 16 -17 19 -17 19
1 15 11 -3 25 2 32 10 12 14 10 16 -12 16 -14 0 -29 4 -32 10 -3 6 4 10 17 10
21 1 22 2 6 14 -10 7 -14 17 -10 21 4 5 1 5 -5 1 -7 -4 -20 -3 -29 2 -13 7
-10 11 18 16 19 3 42 12 51 19 15 10 10 12 -29 12 -32 0 -49 5 -52 14 -3 10 1
12 17 8 11 -3 19 -1 16 3 -3 5 -2 10 2 13 5 2 2 2 -4 1 -7 -2 -23 1 -35 6 -22
8 -22 9 -2 9 11 1 31 13 45 27 l24 26 -30 -2 c-16 -1 -36 -2 -42 -1 -18 1 -16
21 1 21 12 0 46 40 46 55 0 3 -10 1 -21 -6 -15 -8 -19 -8 -15 0 4 6 2 11 -3
11 -17 0 -13 27 4 34 8 3 15 10 15 15 0 6 -6 8 -14 5 -15 -6 -46 60 -46 99 -1
18 -4 16 -20 -13 -17 -32 -17 -36 -2 -41 13 -5 11 -8 -10 -14 -30 -8 -38 -25
-13 -25 23 0 13 -24 -15 -36 l-25 -11 30 -16 30 -15 -29 -12 c-22 -8 -31 -8
-36 1 -6 8 -13 8 -30 -1 -20 -11 -22 -10 -17 4 4 10 1 16 -7 16 -7 0 -13 7
-13 15 0 8 6 15 12 15 7 0 19 8 26 17 12 15 12 16 -4 10 -11 -4 -24 -1 -33 8
-9 8 -12 15 -8 15 4 0 -1 7 -12 15 -17 13 -17 14 -1 15 21 0 23 18 3 26 -8 3
-13 11 -10 18 3 7 1 23 -4 36 -9 24 -9 24 -16 -6z m169 -254 c7 6 16 7 19 2 3
-5 -7 -15 -22 -22 -31 -15 -62 -20 -62 -10 0 4 -13 5 -29 2 -16 -2 -32 1 -35
7 -4 7 1 11 12 11 11 0 27 12 37 26 l17 27 25 -27 c19 -21 28 -24 38 -16z
m-39 -65 c-6 -18 7 -19 37 -4 l22 11 -20 -20 c-26 -27 -125 -35 -125 -11 0 6
7 9 15 6 7 -3 24 3 37 13 28 23 42 25 34 5z m34 -61 c0 -2 -19 -8 -41 -14 -36
-10 -44 -9 -58 5 -15 16 -14 17 12 13 15 -3 27 -2 27 2 0 3 14 5 30 2 17 -2
30 -6 30 -8z m15 -199 c0 -13 -8 -21 -24 -23 -15 -2 -21 0 -16 7 3 6 -1 14 -9
17 -27 10 -18 22 17 20 25 -1 32 -6 32 -21z"/>
<path d="M827 678 c-10 -34 -8 -68 2 -68 5 0 26 -16 47 -35 20 -19 41 -32 46
-29 5 3 20 -2 34 -11 14 -9 27 -15 29 -13 2 2 0 19 -5 38 -4 19 -8 29 -9 23
-1 -7 -5 -13 -11 -13 -6 0 -9 3 -9 8 1 4 1 20 0 35 -1 38 -17 26 -26 -19 -7
-40 -12 -41 -19 -3 -2 13 -9 23 -15 22 -6 -2 -11 8 -11 22 0 26 -15 34 -23 13
-3 -7 -6 -4 -6 7 -1 11 -5 26 -10 33 -6 10 -10 8 -14 -10z"/>
<path d="M2771 456 c-7 -8 -20 -12 -28 -9 -11 4 -14 3 -9 -6 6 -9 -1 -11 -29
-5 -43 8 -42 -10 2 -27 29 -11 57 2 74 32 13 25 6 35 -10 15z"/>
<path d="M1720 357 c-127 -12 -167 -28 -50 -20 52 3 140 6 195 5 63 -1 93 2
80 7 -31 13 -132 17 -225 8z"/>
<path d="M1080 246 l-105 -11 122 -5 c67 -3 124 -8 127 -11 4 -3 -58 -9 -136
-11 -131 -5 -454 -45 -444 -56 3 -2 80 4 173 14 201 21 528 24 758 6 88 -7
171 -15 185 -18 18 -3 21 -2 10 5 -16 9 -256 40 -336 43 l-49 1 55 7 c51 6 52
7 14 8 -23 1 -81 9 -130 17 -49 8 -100 17 -114 19 -14 2 -72 -2 -130 -8z"/>
</g>
</svg>
